<svg xmlns="http://www.w3.org/2000/svg" xmlns:xlink="http://www.w3.org/1999/xlink" version="1.1" width="256" height="256" viewBox="0 0 256 256" xml:space="preserve">

<defs>
</defs>
<g style="stroke: none; stroke-width: 0; stroke-dasharray: none; stroke-linecap: butt; stroke-linejoin: miter; stroke-miterlimit: 10; fill: none; fill-rule: nonzero; opacity: 1;" transform="translate(1.4065934065934016 1.4065934065934016) scale(2.81 2.81)" >
	<path d="M 0.434 43.779 l 25.251 -31.057 c 0.368 -0.452 0.92 -0.714 1.502 -0.714 h 19.521 c 0.747 0 1.427 0.43 1.748 1.104 c 0.321 0.674 0.225 1.473 -0.246 2.053 L 23.951 45 l 24.258 29.836 c 0.471 0.579 0.567 1.378 0.246 2.053 c -0.321 0.674 -1.001 1.104 -1.748 1.104 H 27.187 c -0.582 0 -1.134 -0.263 -1.502 -0.714 L 0.434 46.221 C -0.145 45.51 -0.145 44.49 0.434 43.779 z" style="stroke: none; stroke-width: 1; stroke-dasharray: none; stroke-linecap: butt; stroke-linejoin: miter; stroke-miterlimit: 10; fill: rgb(54,107,255); fill-rule: nonzero; opacity: 1;" transform=" matrix(1 0 0 1 0 0) " stroke-linecap="round" />
	<path d="M 41.792 43.779 l 25.25 -31.057 c 0.368 -0.452 0.919 -0.714 1.502 -0.714 h 19.52 c 0.747 0 1.427 0.43 1.748 1.104 c 0.321 0.674 0.225 1.473 -0.246 2.053 L 65.308 45 l 24.258 29.836 c 0.471 0.579 0.567 1.378 0.246 2.053 c -0.321 0.674 -1.001 1.104 -1.748 1.104 H 68.544 c -0.583 0 -1.134 -0.263 -1.502 -0.714 l -25.25 -31.057 C 41.214 45.51 41.214 44.49 41.792 43.779 z" style="stroke: none; stroke-width: 1; stroke-dasharray: none; stroke-linecap: butt; stroke-linejoin: miter; stroke-miterlimit: 10; fill: rgb(54,107,255); fill-rule: nonzero; opacity: 1;" transform=" matrix(1 0 0 1 0 0) " stroke-linecap="round" />
</g>
</svg>