<?xml version="1.0" encoding="us-ascii" standalone="no"?><svg xmlns="http://www.w3.org/2000/svg" xmlns:xlink="http://www.w3.org/1999/xlink" contentStyleType="text/css" height="800px" preserveAspectRatio="none" style="width:1140px;height:800px;background:#FFFFFF;" version="1.1" viewBox="0 0 1140 800" width="1140px" zoomAndPan="magnify"><defs/><g><ellipse cx="713.25" cy="20" fill="#222222" rx="10" ry="10" style="stroke:#222222;stroke-width:1.0;"/><rect fill="#F1F1F1" height="33.9688" rx="12.5" ry="12.5" style="stroke:#181818;stroke-width:0.5;" width="337" x="544.75" y="50"/><text fill="#000000" font-family="sans-serif" font-size="12" lengthAdjust="spacing" textLength="317" x="554.75" y="71.1387">&#1055;&#1086;&#1083;&#1091;&#1095;&#1080;&#1090;&#1100; &#1090;&#1077;&#1083;&#1086; HTTP-&#1079;&#1072;&#1087;&#1088;&#1086;&#1089;&#1072; &#1080;&#1079; &#1074;&#1093;&#1086;&#1076;&#1085;&#1086;&#1075;&#1086; &#1087;&#1086;&#1090;&#1086;&#1082;&#1072;</text><rect fill="#F1F1F1" height="33.9688" rx="12.5" ry="12.5" style="stroke:#181818;stroke-width:0.5;" width="209" x="608.75" y="103.9688"/><text fill="#000000" font-family="sans-serif" font-size="12" lengthAdjust="spacing" textLength="189" x="618.75" y="125.1074">&#1056;&#1072;&#1079;&#1086;&#1073;&#1088;&#1072;&#1090;&#1100; &#1090;&#1077;&#1083;&#1086; HTTP-&#1079;&#1072;&#1087;&#1088;&#1086;&#1089;&#1072;</text><rect fill="#F1F1F1" height="33.9688" rx="12.5" ry="12.5" style="stroke:#181818;stroke-width:0.5;" width="240" x="593.25" y="157.9375"/><text fill="#000000" font-family="sans-serif" font-size="12" lengthAdjust="spacing" textLength="220" x="603.25" y="179.0762">&#1055;&#1088;&#1086;&#1074;&#1077;&#1088;&#1080;&#1090;&#1100; &#1082;&#1086;&#1088;&#1088;&#1077;&#1082;&#1090;&#1085;&#1086;&#1089;&#1090;&#1100; &#1079;&#1072;&#1087;&#1088;&#1086;&#1089;&#1072;</text><polygon fill="#F1F1F1" points="654.25,211.9063,772.25,211.9063,784.25,223.9063,772.25,235.9063,654.25,235.9063,642.25,223.9063,654.25,211.9063" style="stroke:#181818;stroke-width:0.5;"/><text fill="#000000" font-family="sans-serif" font-size="11" lengthAdjust="spacing" textLength="118" x="654.25" y="227.7144">&#1047;&#1072;&#1087;&#1088;&#1086;&#1089; &#1082;&#1086;&#1088;&#1088;&#1077;&#1082;&#1090;&#1085;&#1099;&#1081;</text><text fill="#000000" font-family="sans-serif" font-size="11" lengthAdjust="spacing" textLength="16" x="626.25" y="221.312">&#1076;&#1072;</text><text fill="#000000" font-family="sans-serif" font-size="11" lengthAdjust="spacing" textLength="22" x="784.25" y="221.312">&#1085;&#1077;&#1090;</text><rect fill="#F1F1F1" height="33.9688" rx="12.5" ry="12.5" style="stroke:#181818;stroke-width:0.5;" width="218" x="323" y="245.9063"/><text fill="#000000" font-family="sans-serif" font-size="12" lengthAdjust="spacing" textLength="198" x="333" y="267.0449">&#1047;&#1072;&#1074;&#1077;&#1089;&#1090;&#1080; &#1087;&#1091;&#1089;&#1090;&#1086;&#1081; &#1084;&#1072;&#1089;&#1089;&#1080;&#1074; &#1083;&#1080;&#1089;&#1090;&#1086;&#1074;</text><polygon fill="#F1F1F1" points="88,343.875,283,343.875,295,355.875,283,367.875,88,367.875,76,355.875,88,343.875" style="stroke:#181818;stroke-width:0.5;"/><text fill="#000000" font-family="sans-serif" font-size="11" lengthAdjust="spacing" textLength="16" x="189.5" y="378.0854">&#1076;&#1072;</text><text fill="#000000" font-family="sans-serif" font-size="11" lengthAdjust="spacing" textLength="195" x="88" y="359.6831">&#1060;&#1086;&#1088;&#1084;&#1072;&#1090; &#1083;&#1080;&#1089;&#1090;&#1072; - &#1089;&#1087;&#1080;&#1089;&#1086;&#1082; &#1079;&#1072;&#1087;&#1080;&#1089;&#1077;&#1081;?</text><rect fill="#F1F1F1" height="33.9688" rx="12.5" ry="12.5" style="stroke:#181818;stroke-width:0.5;" width="299" x="36" y="400.6797"/><text fill="#000000" font-family="sans-serif" font-size="12" lengthAdjust="spacing" textLength="279" x="46" y="421.8184">&#1047;&#1072;&#1087;&#1088;&#1086;&#1089;&#1080;&#1090;&#1100; &#1083;&#1080;&#1089;&#1090; &#1074; &#1092;&#1086;&#1088;&#1084;&#1072;&#1090;&#1077; &#1089;&#1087;&#1080;&#1089;&#1082;&#1072; &#1079;&#1072;&#1087;&#1080;&#1089;&#1077;&#1081;</text><polygon fill="#F1F1F1" points="406,343.875,559,343.875,571,355.875,559,367.875,406,367.875,394,355.875,406,343.875" style="stroke:#181818;stroke-width:0.5;"/><text fill="#000000" font-family="sans-serif" font-size="11" lengthAdjust="spacing" textLength="16" x="486.5" y="378.0854">&#1076;&#1072;</text><text fill="#000000" font-family="sans-serif" font-size="11" lengthAdjust="spacing" textLength="153" x="406" y="359.6831">&#1060;&#1086;&#1088;&#1084;&#1072;&#1090; &#1083;&#1080;&#1089;&#1090;&#1072; - &#1084;&#1072;&#1090;&#1088;&#1080;&#1094;&#1072;?</text><rect fill="#F1F1F1" height="33.9688" rx="12.5" ry="12.5" style="stroke:#181818;stroke-width:0.5;" width="255" x="355" y="400.6797"/><text fill="#000000" font-family="sans-serif" font-size="12" lengthAdjust="spacing" textLength="235" x="365" y="421.8184">&#1047;&#1072;&#1087;&#1088;&#1086;&#1089;&#1080;&#1090;&#1100; &#1083;&#1080;&#1089;&#1090; &#1074; &#1092;&#1086;&#1088;&#1084;&#1072;&#1090;&#1077; &#1084;&#1072;&#1090;&#1088;&#1080;&#1094;&#1099;</text><rect fill="#F1F1F1" height="33.9688" rx="12.5" ry="12.5" style="stroke:#181818;stroke-width:0.5;" width="198" x="630" y="397.2773"/><text fill="#000000" font-family="sans-serif" font-size="12" lengthAdjust="spacing" textLength="178" x="640" y="418.416">&#1057;&#1092;&#1086;&#1088;&#1084;&#1080;&#1088;&#1086;&#1074;&#1072;&#1090;&#1100; &#1087;&#1091;&#1089;&#1090;&#1086;&#1081; &#1083;&#1080;&#1089;&#1090;</text><rect fill="#F1F1F1" height="33.9688" rx="12.5" ry="12.5" style="stroke:#181818;stroke-width:0.5;" width="305" x="279.5" y="499.6484"/><text fill="#000000" font-family="sans-serif" font-size="12" lengthAdjust="spacing" textLength="285" x="289.5" y="520.7871">&#1044;&#1086;&#1073;&#1072;&#1074;&#1080;&#1090;&#1100; &#1087;&#1086;&#1083;&#1091;&#1095;&#1077;&#1085;&#1085;&#1099;&#1081; &#1083;&#1080;&#1089;&#1090; &#1074; &#1084;&#1072;&#1089;&#1089;&#1080;&#1074; &#1083;&#1080;&#1089;&#1090;&#1086;&#1074;</text><rect fill="#F1F1F1" height="33.9688" rx="12.5" ry="12.5" style="stroke:#181818;stroke-width:0.5;" width="283" x="290.5" y="553.6172"/><text fill="#000000" font-family="sans-serif" font-size="12" lengthAdjust="spacing" textLength="263" x="300.5" y="574.7559">&#1055;&#1077;&#1088;&#1077;&#1081;&#1090;&#1080; &#1082; &#1089;&#1083;&#1077;&#1076;&#1091;&#1102;&#1097;&#1077;&#1084;&#1091; &#1083;&#1080;&#1089;&#1090;&#1091; &#1074; &#1079;&#1072;&#1087;&#1088;&#1086;&#1089;&#1077;</text><polygon fill="#F1F1F1" points="308,299.875,556,299.875,568,311.875,556,323.875,308,323.875,296,311.875,308,299.875" style="stroke:#181818;stroke-width:0.5;"/><text fill="#000000" font-family="sans-serif" font-size="11" lengthAdjust="spacing" textLength="248" x="308" y="315.6831">&#1045;&#1089;&#1090;&#1100; &#1079;&#1072;&#1087;&#1088;&#1086;&#1089;&#1077; &#1077;&#1097;&#1077; &#1085;&#1077;&#1087;&#1086;&#1083;&#1091;&#1095;&#1077;&#1085;&#1085;&#1099;&#1077; &#1083;&#1080;&#1089;&#1090;&#1099;?</text><rect fill="#F1F1F1" height="33.9688" rx="12.5" ry="12.5" style="stroke:#181818;stroke-width:0.5;" width="269" x="860" y="245.9063"/><text fill="#000000" font-family="sans-serif" font-size="12" lengthAdjust="spacing" textLength="249" x="870" y="267.0449">&#1057;&#1092;&#1086;&#1088;&#1084;&#1080;&#1088;&#1086;&#1074;&#1072;&#1090;&#1100; &#1089;&#1086;&#1086;&#1073;&#1097;&#1077;&#1085;&#1080;&#1077; &#1086;&#1073; &#1086;&#1096;&#1080;&#1073;&#1082;&#1077;</text><polygon fill="#F1F1F1" points="713.25,615.5859,725.25,627.5859,713.25,639.5859,701.25,627.5859,713.25,615.5859" style="stroke:#181818;stroke-width:0.5;"/><rect fill="#F1F1F1" height="33.9688" rx="12.5" ry="12.5" style="stroke:#181818;stroke-width:0.5;" width="280" x="573.25" y="659.5859"/><text fill="#000000" font-family="sans-serif" font-size="12" lengthAdjust="spacing" textLength="260" x="583.25" y="680.7246">&#1057;&#1092;&#1086;&#1088;&#1084;&#1080;&#1088;&#1086;&#1074;&#1072;&#1090;&#1100; &#1080;&#1079; &#1084;&#1072;&#1089;&#1089;&#1080;&#1074;&#1072; &#1083;&#1080;&#1089;&#1090;&#1086;&#1074; &#1086;&#1090;&#1074;&#1077;&#1090;</text><rect fill="#F1F1F1" height="33.9688" rx="12.5" ry="12.5" style="stroke:#181818;stroke-width:0.5;" width="256" x="585.25" y="713.5547"/><text fill="#000000" font-family="sans-serif" font-size="12" lengthAdjust="spacing" textLength="236" x="595.25" y="734.6934">&#1053;&#1072;&#1087;&#1077;&#1095;&#1072;&#1090;&#1072;&#1090;&#1100; &#1086;&#1090;&#1074;&#1077;&#1090; &#1074; &#1074;&#1099;&#1093;&#1086;&#1076;&#1085;&#1086;&#1081; &#1087;&#1086;&#1090;&#1086;&#1082;</text><ellipse cx="713.25" cy="778.5234" fill="none" rx="11" ry="11" style="stroke:#222222;stroke-width:1.0;"/><ellipse cx="713.25" cy="778.5234" fill="#222222" rx="6" ry="6" style="stroke:#111111;stroke-width:1.0;"/><line style="stroke:#181818;stroke-width:1.0;" x1="713.25" x2="713.25" y1="30" y2="50"/><polygon fill="#181818" points="709.25,40,713.25,50,717.25,40,713.25,44" style="stroke:#181818;stroke-width:1.0;"/><line style="stroke:#181818;stroke-width:1.0;" x1="713.25" x2="713.25" y1="83.9688" y2="103.9688"/><polygon fill="#181818" points="709.25,93.9688,713.25,103.9688,717.25,93.9688,713.25,97.9688" style="stroke:#181818;stroke-width:1.0;"/><line style="stroke:#181818;stroke-width:1.0;" x1="713.25" x2="713.25" y1="137.9375" y2="157.9375"/><polygon fill="#181818" points="709.25,147.9375,713.25,157.9375,717.25,147.9375,713.25,151.9375" style="stroke:#181818;stroke-width:1.0;"/><line style="stroke:#181818;stroke-width:1.0;" x1="185.5" x2="185.5" y1="367.875" y2="400.6797"/><polygon fill="#181818" points="181.5,390.6797,185.5,400.6797,189.5,390.6797,185.5,394.6797" style="stroke:#181818;stroke-width:1.0;"/><line style="stroke:#181818;stroke-width:1.0;" x1="185.5" x2="185.5" y1="434.6484" y2="479.6484"/><polygon fill="#181818" points="181.5,469.6484,185.5,479.6484,189.5,469.6484,185.5,473.6484" style="stroke:#181818;stroke-width:1.0;"/><line style="stroke:#181818;stroke-width:1.0;" x1="482.5" x2="482.5" y1="367.875" y2="400.6797"/><polygon fill="#181818" points="478.5,390.6797,482.5,400.6797,486.5,390.6797,482.5,394.6797" style="stroke:#181818;stroke-width:1.0;"/><line style="stroke:#181818;stroke-width:1.0;" x1="482.5" x2="482.5" y1="434.6484" y2="479.6484"/><polygon fill="#181818" points="478.5,469.6484,482.5,479.6484,486.5,469.6484,482.5,473.6484" style="stroke:#181818;stroke-width:1.0;"/><line style="stroke:#181818;stroke-width:1.0;" x1="295" x2="394" y1="355.875" y2="355.875"/><polygon fill="#181818" points="384,351.875,394,355.875,384,359.875,388,355.875" style="stroke:#181818;stroke-width:1.0;"/><line style="stroke:#181818;stroke-width:1.0;" x1="432" x2="432" y1="323.875" y2="328.875"/><line style="stroke:#181818;stroke-width:1.0;" x1="432" x2="185.5" y1="328.875" y2="328.875"/><line style="stroke:#181818;stroke-width:1.0;" x1="185.5" x2="185.5" y1="328.875" y2="343.875"/><polygon fill="#181818" points="181.5,333.875,185.5,343.875,189.5,333.875,185.5,337.875" style="stroke:#181818;stroke-width:1.0;"/><line style="stroke:#181818;stroke-width:1.0;" x1="571" x2="729" y1="355.875" y2="355.875"/><line style="stroke:#181818;stroke-width:1.0;" x1="729" x2="729" y1="355.875" y2="397.2773"/><polygon fill="#181818" points="725,387.2773,729,397.2773,733,387.2773,729,391.2773" style="stroke:#181818;stroke-width:1.0;"/><line style="stroke:#181818;stroke-width:1.0;" x1="729" x2="729" y1="431.2461" y2="479.6484"/><polygon fill="#181818" points="725,469.6484,729,479.6484,733,469.6484,729,473.6484" style="stroke:#181818;stroke-width:1.0;"/><line style="stroke:#181818;stroke-width:1.0;" x1="185.5" x2="729" y1="479.6484" y2="479.6484"/><line style="stroke:#181818;stroke-width:1.0;" x1="432" x2="432" y1="479.6484" y2="499.6484"/><polygon fill="#181818" points="428,489.6484,432,499.6484,436,489.6484,432,493.6484" style="stroke:#181818;stroke-width:1.0;"/><line style="stroke:#181818;stroke-width:1.0;" x1="432" x2="432" y1="533.6172" y2="553.6172"/><polygon fill="#181818" points="428,543.6172,432,553.6172,436,543.6172,432,547.6172" style="stroke:#181818;stroke-width:1.0;"/><line style="stroke:#181818;stroke-width:1.0;" x1="432" x2="432" y1="587.5859" y2="597.5859"/><line style="stroke:#181818;stroke-width:1.0;" x1="432" x2="840" y1="597.5859" y2="597.5859"/><polygon fill="#181818" points="836,454.6484,840,444.6484,844,454.6484,840,450.6484" style="stroke:#181818;stroke-width:1.0;"/><line style="stroke:#181818;stroke-width:1.0;" x1="840" x2="840" y1="311.875" y2="597.5859"/><line style="stroke:#181818;stroke-width:1.0;" x1="840" x2="568" y1="311.875" y2="311.875"/><polygon fill="#181818" points="578,307.875,568,311.875,578,315.875,574,311.875" style="stroke:#181818;stroke-width:1.0;"/><line style="stroke:#181818;stroke-width:1.0;" x1="296" x2="24" y1="311.875" y2="311.875"/><polygon fill="#181818" points="20,449.6484,24,459.6484,28,449.6484,24,453.6484" style="stroke:#181818;stroke-width:1.0;"/><line style="stroke:#181818;stroke-width:1.0;" x1="24" x2="24" y1="311.875" y2="627.5859"/><line style="stroke:#181818;stroke-width:1.0;" x1="24" x2="701.25" y1="627.5859" y2="627.5859"/><polygon fill="#181818" points="691.25,623.5859,701.25,627.5859,691.25,631.5859,695.25,627.5859" style="stroke:#181818;stroke-width:1.0;"/><line style="stroke:#181818;stroke-width:1.0;" x1="432" x2="432" y1="279.875" y2="299.875"/><polygon fill="#181818" points="428,289.875,432,299.875,436,289.875,432,293.875" style="stroke:#181818;stroke-width:1.0;"/><line style="stroke:#181818;stroke-width:1.0;" x1="642.25" x2="432" y1="223.9063" y2="223.9063"/><line style="stroke:#181818;stroke-width:1.0;" x1="432" x2="432" y1="223.9063" y2="245.9063"/><polygon fill="#181818" points="428,235.9063,432,245.9063,436,235.9063,432,239.9063" style="stroke:#181818;stroke-width:1.0;"/><line style="stroke:#181818;stroke-width:1.0;" x1="784.25" x2="994.5" y1="223.9063" y2="223.9063"/><line style="stroke:#181818;stroke-width:1.0;" x1="994.5" x2="994.5" y1="223.9063" y2="245.9063"/><polygon fill="#181818" points="990.5,235.9063,994.5,245.9063,998.5,235.9063,994.5,239.9063" style="stroke:#181818;stroke-width:1.0;"/><line style="stroke:#181818;stroke-width:1.0;" x1="994.5" x2="994.5" y1="279.875" y2="627.5859"/><line style="stroke:#181818;stroke-width:1.0;" x1="994.5" x2="725.25" y1="627.5859" y2="627.5859"/><polygon fill="#181818" points="735.25,623.5859,725.25,627.5859,735.25,631.5859,731.25,627.5859" style="stroke:#181818;stroke-width:1.0;"/><line style="stroke:#181818;stroke-width:1.0;" x1="713.25" x2="713.25" y1="191.9063" y2="211.9063"/><polygon fill="#181818" points="709.25,201.9063,713.25,211.9063,717.25,201.9063,713.25,205.9063" style="stroke:#181818;stroke-width:1.0;"/><line style="stroke:#181818;stroke-width:1.0;" x1="713.25" x2="713.25" y1="639.5859" y2="659.5859"/><polygon fill="#181818" points="709.25,649.5859,713.25,659.5859,717.25,649.5859,713.25,653.5859" style="stroke:#181818;stroke-width:1.0;"/><line style="stroke:#181818;stroke-width:1.0;" x1="713.25" x2="713.25" y1="693.5547" y2="713.5547"/><polygon fill="#181818" points="709.25,703.5547,713.25,713.5547,717.25,703.5547,713.25,707.5547" style="stroke:#181818;stroke-width:1.0;"/><line style="stroke:#181818;stroke-width:1.0;" x1="713.25" x2="713.25" y1="747.5234" y2="767.5234"/><polygon fill="#181818" points="709.25,757.5234,713.25,767.5234,717.25,757.5234,713.25,761.5234" style="stroke:#181818;stroke-width:1.0;"/><!--SRC=[fLGxRi904ErzYYsXu0Aue4sPWWj4YYEG48a2Kbem-I57gHAbYaYa7C0uMDW6p1LcRfGtwyKVY4WH5xPcT-VDcpVFEnYUNGyjgqapIcd54twWY5r-KknII2jArKcxVTgW9VcqvH6bF2PVKKHBHG7V8Mb16xo_SPAss7OH9EJRIa0_aBN4mXoP_f-mjj2GW08AySs802tb4SAG4cHlv6osiPTiTIzgz5Qi7MIoHt5T3JjENzL0swzRbiBJr4bI4hWKeGt8CDQDn8hM83v6WOW21UAHsGdiBFccq-qvW7lzZLIe03gLpmOSjhd28M9X4-Q8xBKC6tcaaI_XhgkxHLrVDHHmjnAApgQS3aEAMvNkL8vNTBbZPgGrk1YbujkY88ZbLH8PTwMANG0xlO5pd6ssfeTvJtwLu7_ubN7PiokCzd0_yzJ8c2kpOdNEfbG9gN_UlIXcqgGNCR9sYc5tED2uGlc8TtQe9VYPzZpqpKoOo0XMY1Uey2mkeZLF2iDCT8MAs_PWqO1sfsNfCTN4XEpMhUEgQ6F97plLNKMYDKAy-17H78P08IFE4N7r3L4IG6nKaa3fgq9-EaWEd7Vji11QodmDHdv4zngmLxfmuj9r0uJ1yFBg1m00]--></g></svg>